<?xml version="1.0" standalone="no"?>
<!DOCTYPE svg PUBLIC "-//W3C//DTD SVG 20010904//EN"
 "http://www.w3.org/TR/2001/REC-SVG-20010904/DTD/svg10.dtd">
<svg version="1.0" xmlns="http://www.w3.org/2000/svg"
 width="300.000000pt" height="300.000000pt" viewBox="0 0 300.000000 300.000000"
 preserveAspectRatio="xMidYMid meet">
<metadata>
Created by potrace 1.10, written by Peter Selinger 2001-2011
</metadata>
<g transform="translate(0.000000,300.000000) scale(0.100000,-0.100000)"
fill="#000000" stroke="none">
<path d="M1355 2554 c-463 -73 -821 -419 -900 -869 -99 -569 269 -1108 835
-1225 89 -19 126 -21 245 -17 90 4 168 13 220 26 349 87 640 356 754 698 56
167 65 415 22 588 -93 377 -398 682 -776 776 -79 20 -328 34 -400 23z m397
-48 c370 -94 655 -380 755 -754 23 -84 26 -117 26 -252 0 -135 -3 -168 -26
-252 -50 -190 -147 -357 -285 -490 -135 -131 -287 -216 -470 -265 -84 -23
-117 -26 -252 -26 -135 0 -168 3 -252 26 -374 99 -656 381 -755 755 -23 84
-26 117 -26 252 0 135 3 168 26 252 110 412 442 711 863 778 99 15 286 4 396
-24z"/>
<path d="M1400 2285 c-140 -40 -239 -142 -276 -285 -46 -179 43 -362 214 -443
61 -29 76 -32 162 -32 86 0 101 3 162 32 224 106 296 387 149 582 -96 128
-263 187 -411 146z m210 -29 c40 -9 80 -28 80 -37 0 -5 6 -9 14 -9 20 0 106
-98 127 -146 65 -144 31 -313 -84 -421 -68 -64 -145 -94 -242 -95 -87 0 -137
13 -195 50 -154 99 -213 275 -149 447 23 63 99 152 150 176 54 26 83 38 104
43 24 6 159 0 195 -8z"/>
<path d="M1331 2135 c-16 -14 -35 -42 -42 -63 -6 -20 -25 -52 -40 -70 -34 -39
-38 -54 -41 -156 l-3 -79 58 -60 c53 -53 62 -59 90 -53 19 3 45 20 63 41 28
32 36 35 85 35 50 0 56 -3 84 -36 19 -23 41 -37 63 -40 28 -5 38 1 88 50 l57
56 -2 92 c-2 87 -4 96 -35 143 -18 28 -39 65 -46 83 -7 18 -26 44 -42 57 -28
24 -35 25 -168 25 -134 0 -140 -1 -169 -25z m327 -18 c12 -11 29 -41 39 -69
10 -27 25 -54 34 -59 26 -14 39 -65 39 -157 0 -79 -1 -84 -20 -79 -12 3 -20 0
-20 -8 0 -26 -41 -65 -69 -65 -34 0 -67 23 -74 52 -6 21 -11 23 -84 23 -76 0
-78 -1 -90 -27 -26 -60 -104 -61 -133 -3 -10 20 -21 29 -33 27 -15 -3 -17 6
-17 88 0 91 14 142 42 153 7 2 19 22 27 43 19 54 39 84 64 94 12 5 79 9 148 7
107 -2 130 -5 147 -20z"/>
<path d="M1367 2082 c-9 -10 -23 -36 -31 -59 -8 -22 -26 -52 -40 -66 -23 -23
-26 -34 -26 -97 0 -66 1 -71 19 -65 16 5 20 0 23 -26 6 -62 68 -62 68 0 l0 26
120 0 119 0 3 -29 c6 -61 68 -62 68 -1 0 32 3 36 20 30 19 -6 20 -2 20 65 0
63 -3 74 -25 96 -14 14 -34 49 -45 77 -11 28 -25 54 -32 59 -7 4 -65 8 -129 8
-99 0 -118 -3 -132 -18z m264 -59 l18 -53 -149 0 -149 0 15 43 c8 23 16 48 19
55 3 9 32 12 116 10 l112 -3 18 -52z m-128 -74 c76 0 142 3 148 7 10 6 49 -23
49 -37 0 -4 -15 -5 -34 -2 -29 4 -37 1 -52 -22 -14 -22 -15 -31 -6 -46 7 -10
12 -21 12 -24 0 -3 -53 -5 -119 -5 -98 0 -121 -3 -132 -16 -8 -9 -14 -23 -14
-30 0 -8 -4 -13 -10 -11 -5 1 -9 6 -7 11 2 5 -7 20 -20 34 -23 24 -23 25 -1
13 24 -12 52 -5 70 18 31 39 -5 88 -57 78 -34 -7 -37 -2 -13 25 10 11 23 16
32 12 9 -3 78 -6 154 -5z m-134 -63 c25 -30 -16 -67 -44 -40 -18 19 -19 26 -3
42 16 16 33 15 47 -2z m310 0 c25 -30 -16 -67 -44 -40 -18 19 -19 26 -3 42 16
16 33 15 47 -2z m8 -74 c-10 -10 -17 -26 -17 -35 0 -9 -4 -19 -10 -22 -5 -3
-10 3 -10 14 0 11 -4 23 -10 26 -15 10 -12 25 4 19 8 -3 23 -1 33 5 26 15 28
13 10 -7z"/>
<path d="M1410 2025 c0 -12 17 -15 90 -15 73 0 90 3 90 15 0 12 -17 15 -90 15
-73 0 -90 -3 -90 -15z"/>
<path d="M939 1211 c-42 -42 -43 -102 -2 -139 28 -25 65 -24 93 4 13 13 10 14
-27 8 -53 -8 -73 6 -73 53 0 57 65 104 98 71 6 -6 15 -8 19 -4 11 11 -27 36
-55 36 -13 0 -37 -13 -53 -29z"/>
<path d="M1707 1224 c-49 -26 -65 -115 -27 -149 26 -23 76 -24 98 0 16 17 16
17 -3 12 -11 -2 -28 -8 -37 -12 -24 -10 -58 28 -58 65 0 54 66 100 98 68 6 -6
15 -8 19 -4 10 9 -25 36 -46 36 -9 -1 -29 -8 -44 -16z"/>
<path d="M1093 1178 c-27 -13 -47 -59 -38 -87 20 -63 97 -37 103 35 3 28 -1
42 -14 51 -21 15 -22 15 -51 1z m45 -31 c6 -30 -6 -64 -25 -71 -35 -14 -49 44
-20 82 14 18 41 11 45 -11z"/>
<path d="M1223 1178 c-29 -14 -48 -70 -34 -96 16 -30 42 -35 71 -14 32 24 41
89 14 109 -21 15 -22 15 -51 1z m45 -31 c6 -30 -6 -64 -25 -71 -35 -14 -49 44
-20 82 14 18 41 11 45 -11z"/>
<path d="M1366 1169 c-20 -16 -24 -17 -20 -5 3 9 2 16 -4 16 -11 0 -17 -25
-27 -112 -4 -39 -3 -58 4 -58 6 0 11 14 11 30 0 27 2 30 20 20 39 -21 89 41
76 94 -8 33 -30 39 -60 15z m39 -19 c9 -28 -16 -75 -40 -75 -29 0 -32 44 -5
73 26 27 37 28 45 2z"/>
<path d="M1476 1169 c-33 -26 -37 -92 -7 -109 22 -11 71 2 71 20 0 7 -6 7 -21
0 -11 -7 -27 -9 -35 -6 -25 9 -15 33 17 42 44 13 60 41 35 60 -25 18 -28 18
-60 -7z m51 -16 c2 -6 -10 -16 -27 -21 -33 -12 -39 -2 -14 23 17 17 35 16 41
-2z"/>
<path d="M1870 1183 c-33 -12 -60 -47 -60 -79 0 -45 22 -61 56 -39 15 9 23 12
20 6 -4 -6 -3 -11 3 -11 11 0 16 17 25 82 3 27 0 38 -11 42 -8 3 -15 6 -16 5
-1 0 -9 -3 -17 -6z m20 -42 c0 -34 -31 -77 -48 -67 -19 11 -14 54 8 76 28 28
40 25 40 -9z"/>
<path d="M2046 1177 c-23 -17 -17 -49 12 -62 35 -15 23 -40 -18 -38 -33 3 -34
2 -16 -12 25 -19 29 -19 57 3 26 22 20 51 -12 59 -33 9 -19 39 16 35 29 -2 29
-2 11 13 -24 18 -27 18 -50 2z"/>
<path d="M1576 1143 c-9 -55 -7 -83 4 -83 6 0 10 12 10 28 0 32 25 72 46 72 8
0 14 5 14 10 0 14 -23 13 -38 -2 -9 -9 -12 -9 -12 0 0 28 -18 9 -24 -25z"/>
<path d="M1946 1143 c-9 -55 -7 -83 4 -83 6 0 10 12 10 28 0 32 25 72 46 72 8
0 14 5 14 10 0 14 -23 13 -38 -2 -9 -9 -12 -9 -12 0 0 28 -18 9 -24 -25z"/>
</g>
</svg>
